<svg xmlns="http://www.w3.org/2000/svg" viewBox="0 0 640 960" role="img">
  <defs>
    <radialGradient id="bg"><stop offset="0" stop-color="#24151a"/><stop offset="1" stop-color="#080909"/></radialGradient>
    <linearGradient id="glow" x1="0" y1="0" x2="1" y2="1"><stop stop-color="#efe4c8"/><stop offset="0.5" stop-color="#c6a15b"/><stop offset="1" stop-color="#765023"/></linearGradient>
  </defs>
  <rect width="640" height="960" rx="20" fill="url(#bg)"/>
  <rect x="28" y="28" width="584" height="904" rx="14" fill="none" stroke="#c6a15b" stroke-width="3"/>
  <rect x="48" y="48" width="544" height="864" rx="10" fill="none" stroke="#765023"/>
  <path d="M68 118H572M68 842H572" stroke="#c6a15b" opacity=".58"/>
  <circle cx="320" cy="480" r="238" fill="none" stroke="#765023" stroke-width="2" stroke-dasharray="3 13" transform="rotate(73 320 480)"/>
  <polygon points="92,65 94.89,76.99437316612594 106.72243186433546,73.5 97.78,82 106.72243186433546,90.5 94.89,87.00562683387406 92,99 89.11,87.00562683387406 77.27756813566455,90.5 86.22,82 77.27756813566454,73.5 89.11,76.99437316612594" fill="none" stroke="#c6a15b" stroke-width="3"/><polygon points="548,861 550.89,872.9943731661259 562.7224318643355,869.5 553.78,878 562.7224318643355,886.5 550.89,883.0056268338741 548,895 545.11,883.0056268338741 533.2775681356645,886.5 542.22,878 533.2775681356645,869.5 545.11,872.9943731661259" fill="none" stroke="#c6a15b" stroke-width="3"/>
  <polygon points="320,308 454.4750149845011,372.75975408029785 487.6876008952737,518.273600640486 394.62800312822003,634.9666452792161 245.37199687178003,634.9666452792161 152.31239910472632,518.273600640486 185.52498501549886,372.75975408029785" fill="none" stroke="#765023" stroke-width="3"/><line x1="412" y1="480" x2="492" y2="480" stroke="#c6a15b" stroke-width="3"/><line x1="394.42956348249515" y1="534.0762432109075" x2="459.15092303249094" y2="581.0990633943054" stroke="#c6a15b" stroke-width="3"/><line x1="348.42956348249515" y1="567.4971994991541" x2="373.15092303249094" y2="643.5817208027664" stroke="#c6a15b" stroke-width="3"/><line x1="291.57043651750485" y1="567.4971994991541" x2="266.84907696750906" y2="643.5817208027664" stroke="#c6a15b" stroke-width="3"/><line x1="245.57043651750485" y1="534.0762432109076" x2="180.84907696750906" y2="581.0990633943054" stroke="#c6a15b" stroke-width="3"/><line x1="228" y1="480" x2="148" y2="480" stroke="#c6a15b" stroke-width="3"/><line x1="245.57043651750485" y1="425.92375678909247" x2="180.84907696750903" y2="378.90093660569465" stroke="#c6a15b" stroke-width="3"/><line x1="291.57043651750485" y1="392.50280050084586" x2="266.849076967509" y2="316.4182791972336" stroke="#c6a15b" stroke-width="3"/><line x1="348.42956348249515" y1="392.50280050084586" x2="373.15092303249094" y2="316.4182791972336" stroke="#c6a15b" stroke-width="3"/><line x1="394.42956348249515" y1="425.92375678909247" x2="459.15092303249094" y2="378.9009366056946" stroke="#c6a15b" stroke-width="3"/><path d="M320 320V650M210 405H430M245 405L205 540H285ZM395 405L355 540H435Z" fill="none" stroke="#efe4c8" stroke-width="6"/>
</svg>