<svg xmlns="http://www.w3.org/2000/svg" viewBox="0 0 640 960" role="img">
  <defs>
    <radialGradient id="bg"><stop offset="0" stop-color="#24151a"/><stop offset="1" stop-color="#080909"/></radialGradient>
    <linearGradient id="glow" x1="0" y1="0" x2="1" y2="1"><stop stop-color="#efe4c8"/><stop offset="0.5" stop-color="#c6a15b"/><stop offset="1" stop-color="#765023"/></linearGradient>
  </defs>
  <rect width="640" height="960" rx="20" fill="url(#bg)"/>
  <rect x="28" y="28" width="584" height="904" rx="14" fill="none" stroke="#c6a15b" stroke-width="3"/>
  <rect x="48" y="48" width="544" height="864" rx="10" fill="none" stroke="#765023"/>
  <path d="M68 118H572M68 842H572" stroke="#c6a15b" opacity=".58"/>
  <circle cx="320" cy="480" r="238" fill="none" stroke="#765023" stroke-width="2" stroke-dasharray="3 13" transform="rotate(123 320 480)"/>
  <polygon points="92,65 94.89,76.99437316612594 106.72243186433546,73.5 97.78,82 106.72243186433546,90.5 94.89,87.00562683387406 92,99 89.11,87.00562683387406 77.27756813566455,90.5 86.22,82 77.27756813566454,73.5 89.11,76.99437316612594" fill="none" stroke="#c6a15b" stroke-width="3"/><polygon points="548,861 550.89,872.9943731661259 562.7224318643355,869.5 553.78,878 562.7224318643355,886.5 550.89,883.0056268338741 548,895 545.11,883.0056268338741 533.2775681356645,886.5 542.22,878 533.2775681356645,869.5 545.11,872.9943731661259" fill="none" stroke="#c6a15b" stroke-width="3"/>
  <polygon points="320,344 437.7794549146837,548 202.22054508531636,548" fill="none" stroke="#765023" stroke-width="3"/><line x1="412" y1="480" x2="456" y2="480" stroke="#c6a15b" stroke-width="3"/><line x1="366" y1="559.6743371481683" x2="388" y2="597.7794549146837" stroke="#c6a15b" stroke-width="3"/><line x1="274" y1="559.6743371481683" x2="252.00000000000003" y2="597.7794549146837" stroke="#c6a15b" stroke-width="3"/><line x1="228" y1="480" x2="184" y2="480" stroke="#c6a15b" stroke-width="3"/><line x1="273.99999999999994" y1="400.3256628518317" x2="251.99999999999994" y2="362.22054508531636" stroke="#c6a15b" stroke-width="3"/><line x1="366" y1="400.3256628518317" x2="388" y2="362.22054508531636" stroke="#c6a15b" stroke-width="3"/><circle cx="320" cy="480" r="138" fill="none" stroke="#efe4c8" stroke-width="8"/><polygon points="320,394 329.0356569155235,452.1911074635297 370.5495316971527,410.42453848375453 343.6556569155235,462.81315922296807 401.7908604013832,453.42453848375453 349.24,480 401.7908604013832,506.57546151624547 343.6556569155235,497.18684077703193 370.5495316971527,549.5754615162455 329.0356569155235,507.8088925364703 320,566 310.9643430844765,507.8088925364703 269.4504683028473,549.5754615162455 296.3443430844765,497.18684077703193 238.2091395986168,506.57546151624547 290.76,480 238.2091395986168,453.42453848375453 296.3443430844765,462.81315922296807 269.4504683028473,410.42453848375453 310.9643430844765,452.1911074635297" fill="none" stroke="#c6a15b" stroke-width="3"/><path d="M220 360Q320 280 420 360M220 600Q320 680 420 600" fill="none" stroke="#c6a15b" stroke-width="5"/>
</svg>