<svg xmlns="http://www.w3.org/2000/svg" viewBox="0 0 640 960" role="img">
  <defs>
    <radialGradient id="bg"><stop offset="0" stop-color="#24151a"/><stop offset="1" stop-color="#080909"/></radialGradient>
    <linearGradient id="glow" x1="0" y1="0" x2="1" y2="1"><stop stop-color="#efe4c8"/><stop offset="0.5" stop-color="#c6a15b"/><stop offset="1" stop-color="#765023"/></linearGradient>
  </defs>
  <rect width="640" height="960" rx="20" fill="url(#bg)"/>
  <rect x="28" y="28" width="584" height="904" rx="14" fill="none" stroke="#c6a15b" stroke-width="3"/>
  <rect x="48" y="48" width="544" height="864" rx="10" fill="none" stroke="#765023"/>
  <path d="M68 118H572M68 842H572" stroke="#c6a15b" opacity=".58"/>
  <circle cx="320" cy="480" r="238" fill="none" stroke="#765023" stroke-width="2" stroke-dasharray="3 13" transform="rotate(165 320 480)"/>
  <polygon points="92,65 94.89,76.99437316612594 106.72243186433546,73.5 97.78,82 106.72243186433546,90.5 94.89,87.00562683387406 92,99 89.11,87.00562683387406 77.27756813566455,90.5 86.22,82 77.27756813566454,73.5 89.11,76.99437316612594" fill="none" stroke="#c6a15b" stroke-width="3"/><polygon points="548,861 550.89,872.9943731661259 562.7224318643355,869.5 553.78,878 562.7224318643355,886.5 550.89,883.0056268338741 548,895 545.11,883.0056268338741 533.2775681356645,886.5 542.22,878 533.2775681356645,869.5 545.11,872.9943731661259" fill="none" stroke="#c6a15b" stroke-width="3"/>
  <polygon points="320,308 492,480 320,652 148,480" fill="none" stroke="#765023" stroke-width="3"/><line x1="412" y1="480" x2="492" y2="480" stroke="#c6a15b" stroke-width="3"/><line x1="377.3610617710035" y1="551.9284963870588" x2="427.24024591970215" y2="614.4750149845011" stroke="#c6a15b" stroke-width="3"/><line x1="299.5280740760191" y1="569.6933679207277" x2="281.72639935951395" y2="647.6876008952737" stroke="#c6a15b" stroke-width="3"/><line x1="237.11086415297746" y1="519.9173039988153" x2="165.03335472078393" y2="554.62800312822" stroke="#c6a15b" stroke-width="3"/><line x1="237.11086415297746" y1="440.0826960011847" x2="165.0333547207839" y2="405.37199687178" stroke="#c6a15b" stroke-width="3"/><line x1="299.52807407601904" y1="390.3066320792722" x2="281.7263993595139" y2="312.3123991047263" stroke="#c6a15b" stroke-width="3"/><line x1="377.36106177100345" y1="408.0715036129412" x2="427.24024591970215" y2="345.5249850154988" stroke="#c6a15b" stroke-width="3"/><path d="M250 600Q320 360 390 600M270 410L220 340M370 410L420 340" fill="none" stroke="#efe4c8" stroke-width="8"/><circle cx="320" cy="520" r="64" fill="#481923" stroke="#c6a15b" stroke-width="5"/>
</svg>