<svg xmlns="http://www.w3.org/2000/svg" viewBox="0 0 640 960" role="img">
  <defs>
    <radialGradient id="bg"><stop offset="0" stop-color="#24151a"/><stop offset="1" stop-color="#080909"/></radialGradient>
    <linearGradient id="glow" x1="0" y1="0" x2="1" y2="1"><stop stop-color="#efe4c8"/><stop offset="0.5" stop-color="#c6a15b"/><stop offset="1" stop-color="#765023"/></linearGradient>
  </defs>
  <rect width="640" height="960" rx="20" fill="url(#bg)"/>
  <rect x="28" y="28" width="584" height="904" rx="14" fill="none" stroke="#c6a15b" stroke-width="3"/>
  <rect x="48" y="48" width="544" height="864" rx="10" fill="none" stroke="#765023"/>
  <path d="M68 118H572M68 842H572" stroke="#c6a15b" opacity=".58"/>
  <circle cx="320" cy="480" r="238" fill="none" stroke="#765023" stroke-width="2" stroke-dasharray="3 13" transform="rotate(92 320 480)"/>
  <polygon points="92,65 94.89,76.99437316612594 106.72243186433546,73.5 97.78,82 106.72243186433546,90.5 94.89,87.00562683387406 92,99 89.11,87.00562683387406 77.27756813566455,90.5 86.22,82 77.27756813566454,73.5 89.11,76.99437316612594" fill="none" stroke="#c6a15b" stroke-width="3"/><polygon points="548,861 550.89,872.9943731661259 562.7224318643355,869.5 553.78,878 562.7224318643355,886.5 550.89,883.0056268338741 548,895 545.11,883.0056268338741 533.2775681356645,886.5 542.22,878 533.2775681356645,869.5 545.11,872.9943731661259" fill="none" stroke="#c6a15b" stroke-width="3"/>
  <polygon points="320,362 412.2561149312275,406.42820338066946 435.0414936374552,506.2574702068451 371.1982812158719,586.3143264124855 268.8017187841281,586.3143264124855 204.95850636254482,506.25747020684514 227.74388506877247,406.42820338066946" fill="none" stroke="#765023" stroke-width="3"/><line x1="412" y1="480" x2="438" y2="480" stroke="#c6a15b" stroke-width="3"/><line x1="394.42956348249515" y1="534.0762432109075" x2="415.4640053362438" y2="549.3586597705118" stroke="#c6a15b" stroke-width="3"/><line x1="348.42956348249515" y1="567.4971994991541" x2="356.4640053362438" y2="592.2246689228281" stroke="#c6a15b" stroke-width="3"/><line x1="291.57043651750485" y1="567.4971994991541" x2="283.53599466375624" y2="592.2246689228282" stroke="#c6a15b" stroke-width="3"/><line x1="245.57043651750485" y1="534.0762432109076" x2="224.5359946637562" y2="549.3586597705118" stroke="#c6a15b" stroke-width="3"/><line x1="228" y1="480" x2="202" y2="480" stroke="#c6a15b" stroke-width="3"/><line x1="245.57043651750485" y1="425.92375678909247" x2="224.53599466375618" y2="410.64134022948815" stroke="#c6a15b" stroke-width="3"/><line x1="291.57043651750485" y1="392.50280050084586" x2="283.5359946637562" y2="367.77533107717187" stroke="#c6a15b" stroke-width="3"/><line x1="348.42956348249515" y1="392.50280050084586" x2="356.46400533624376" y2="367.77533107717187" stroke="#c6a15b" stroke-width="3"/><line x1="394.42956348249515" y1="425.92375678909247" x2="415.46400533624376" y2="410.64134022948815" stroke="#c6a15b" stroke-width="3"/><path d="M235 640V400L320 330L405 400V640M260 455H380" fill="none" stroke="#efe4c8" stroke-width="8"/>
</svg>