<svg xmlns="http://www.w3.org/2000/svg" viewBox="0 0 640 960" role="img">
  <defs>
    <radialGradient id="bg"><stop offset="0" stop-color="#24151a"/><stop offset="1" stop-color="#080909"/></radialGradient>
    <linearGradient id="glow" x1="0" y1="0" x2="1" y2="1"><stop stop-color="#efe4c8"/><stop offset="0.5" stop-color="#c6a15b"/><stop offset="1" stop-color="#765023"/></linearGradient>
  </defs>
  <rect width="640" height="960" rx="20" fill="url(#bg)"/>
  <rect x="28" y="28" width="584" height="904" rx="14" fill="none" stroke="#c6a15b" stroke-width="3"/>
  <rect x="48" y="48" width="544" height="864" rx="10" fill="none" stroke="#765023"/>
  <path d="M68 118H572M68 842H572" stroke="#c6a15b" opacity=".58"/>
  <circle cx="320" cy="480" r="238" fill="none" stroke="#765023" stroke-width="2" stroke-dasharray="3 13" transform="rotate(96 320 480)"/>
  <polygon points="92,65 94.89,76.99437316612594 106.72243186433546,73.5 97.78,82 106.72243186433546,90.5 94.89,87.00562683387406 92,99 89.11,87.00562683387406 77.27756813566455,90.5 86.22,82 77.27756813566454,73.5 89.11,76.99437316612594" fill="none" stroke="#c6a15b" stroke-width="3"/><polygon points="548,861 550.89,872.9943731661259 562.7224318643355,869.5 553.78,878 562.7224318643355,886.5 550.89,883.0056268338741 548,895 545.11,883.0056268338741 533.2775681356645,886.5 542.22,878 533.2775681356645,869.5 545.11,872.9943731661259" fill="none" stroke="#c6a15b" stroke-width="3"/>
  <polygon points="320,362 403.4386001800126,396.5613998199874 438,480 403.4386001800126,563.4386001800126 320,598 236.5613998199874,563.4386001800126 202,480 236.56139981998737,396.5613998199874" fill="none" stroke="#765023" stroke-width="3"/><line x1="412" y1="480" x2="438" y2="480" stroke="#c6a15b" stroke-width="3"/><line x1="397.3953250204687" y1="529.738955205915" x2="419.2679168740794" y2="543.7956164597605" stroke="#c6a15b" stroke-width="3"/><line x1="358.21818119617353" y1="563.6861435726157" x2="369.0189715342226" y2="587.3365754518331" stroke="#c6a15b" stroke-width="3"/><line x1="306.90703487885776" y1="571.0635726530459" x2="303.2068490837524" y2="596.7989301419501" stroke="#c6a15b" stroke-width="3"/><line x1="259.7528124770338" y1="549.5289608405917" x2="242.72643339445636" y2="569.1784497738025" stroke="#c6a15b" stroke-width="3"/><line x1="231.72664642746622" y1="505.9193952294115" x2="206.7798291134893" y2="513.2444417072887" stroke="#c6a15b" stroke-width="3"/><line x1="231.72664642746622" y1="454.0806047705885" x2="206.7798291134893" y2="446.7555582927113" stroke="#c6a15b" stroke-width="3"/><line x1="259.7528124770338" y1="410.47103915940824" x2="242.72643339445636" y2="390.82155022619753" stroke="#c6a15b" stroke-width="3"/><line x1="306.90703487885776" y1="388.9364273469542" x2="303.20684908375233" y2="363.20106985804995" stroke="#c6a15b" stroke-width="3"/><line x1="358.21818119617353" y1="396.3138564273843" x2="369.01897153422254" y2="372.6634245481668" stroke="#c6a15b" stroke-width="3"/><line x1="397.3953250204687" y1="430.261044794085" x2="419.2679168740794" y2="416.2043835402395" stroke="#c6a15b" stroke-width="3"/><path d="M320 330V630M260 365H380M250 630H390" stroke="#c6a15b" stroke-width="8"/><circle cx="320" cy="505" r="54" fill="#481923" stroke="#efe4c8" stroke-width="5"/>
</svg>