<svg xmlns="http://www.w3.org/2000/svg" viewBox="0 0 640 960" role="img">
  <defs>
    <radialGradient id="bg"><stop offset="0" stop-color="#24151a"/><stop offset="1" stop-color="#080909"/></radialGradient>
    <linearGradient id="glow" x1="0" y1="0" x2="1" y2="1"><stop stop-color="#efe4c8"/><stop offset="0.5" stop-color="#c6a15b"/><stop offset="1" stop-color="#765023"/></linearGradient>
  </defs>
  <rect width="640" height="960" rx="20" fill="url(#bg)"/>
  <rect x="28" y="28" width="584" height="904" rx="14" fill="none" stroke="#c6a15b" stroke-width="3"/>
  <rect x="48" y="48" width="544" height="864" rx="10" fill="none" stroke="#765023"/>
  <path d="M68 118H572M68 842H572" stroke="#c6a15b" opacity=".58"/>
  <circle cx="320" cy="480" r="238" fill="none" stroke="#765023" stroke-width="2" stroke-dasharray="3 13" transform="rotate(138 320 480)"/>
  <polygon points="92,65 94.89,76.99437316612594 106.72243186433546,73.5 97.78,82 106.72243186433546,90.5 94.89,87.00562683387406 92,99 89.11,87.00562683387406 77.27756813566455,90.5 86.22,82 77.27756813566454,73.5 89.11,76.99437316612594" fill="none" stroke="#c6a15b" stroke-width="3"/><polygon points="548,861 550.89,872.9943731661259 562.7224318643355,869.5 553.78,878 562.7224318643355,886.5 550.89,883.0056268338741 548,895 545.11,883.0056268338741 533.2775681356645,886.5 542.22,878 533.2775681356645,869.5 545.11,872.9943731661259" fill="none" stroke="#c6a15b" stroke-width="3"/>
  <polygon points="320,326 418.9892918917271,362.0291557596774 471.66039396388004,453.25818063929273 453.3679121828036,557 372.671102072153,624.7126636010298 267.32889792784704,624.7126636010299 186.63208781719646,557 168.33960603611996,453.2581806392928 221.01070810827292,362.0291557596774" fill="none" stroke="#765023" stroke-width="3"/><line x1="412" y1="480" x2="474" y2="480" stroke="#c6a15b" stroke-width="3"/><line x1="399.6743371481684" y1="526" x2="453.3679121828036" y2="557" stroke="#c6a15b" stroke-width="3"/><line x1="366" y1="559.6743371481683" x2="397" y2="613.3679121828036" stroke="#c6a15b" stroke-width="3"/><line x1="320" y1="572" x2="320" y2="634" stroke="#c6a15b" stroke-width="3"/><line x1="274" y1="559.6743371481683" x2="243.00000000000003" y2="613.3679121828036" stroke="#c6a15b" stroke-width="3"/><line x1="240.32566285183162" y1="526" x2="186.63208781719644" y2="557" stroke="#c6a15b" stroke-width="3"/><line x1="228" y1="480" x2="166" y2="480" stroke="#c6a15b" stroke-width="3"/><line x1="240.32566285183162" y1="434" x2="186.63208781719644" y2="403.00000000000006" stroke="#c6a15b" stroke-width="3"/><line x1="273.99999999999994" y1="400.3256628518317" x2="242.99999999999994" y2="346.63208781719646" stroke="#c6a15b" stroke-width="3"/><line x1="320" y1="388" x2="320" y2="326" stroke="#c6a15b" stroke-width="3"/><line x1="366" y1="400.3256628518317" x2="397" y2="346.63208781719646" stroke="#c6a15b" stroke-width="3"/><line x1="399.6743371481683" y1="433.99999999999994" x2="453.3679121828035" y2="402.99999999999994" stroke="#c6a15b" stroke-width="3"/><circle cx="265" cy="470" r="62" fill="none" stroke="#efe4c8" stroke-width="6"/><circle cx="375" cy="470" r="62" fill="none" stroke="#efe4c8" stroke-width="6"/><path d="M320 390V650" stroke="#c6a15b" stroke-width="5"/>
</svg>