<svg xmlns="http://www.w3.org/2000/svg" viewBox="0 0 640 960" role="img">
  <defs>
    <radialGradient id="bg"><stop offset="0" stop-color="#24151a"/><stop offset="1" stop-color="#080909"/></radialGradient>
    <linearGradient id="glow" x1="0" y1="0" x2="1" y2="1"><stop stop-color="#efe4c8"/><stop offset="0.5" stop-color="#c6a15b"/><stop offset="1" stop-color="#765023"/></linearGradient>
  </defs>
  <rect width="640" height="960" rx="20" fill="url(#bg)"/>
  <rect x="28" y="28" width="584" height="904" rx="14" fill="none" stroke="#c6a15b" stroke-width="3"/>
  <rect x="48" y="48" width="544" height="864" rx="10" fill="none" stroke="#765023"/>
  <path d="M68 118H572M68 842H572" stroke="#c6a15b" opacity=".58"/>
  <circle cx="320" cy="480" r="238" fill="none" stroke="#765023" stroke-width="2" stroke-dasharray="3 13" transform="rotate(115 320 480)"/>
  <polygon points="92,65 94.89,76.99437316612594 106.72243186433546,73.5 97.78,82 106.72243186433546,90.5 94.89,87.00562683387406 92,99 89.11,87.00562683387406 77.27756813566455,90.5 86.22,82 77.27756813566454,73.5 89.11,76.99437316612594" fill="none" stroke="#c6a15b" stroke-width="3"/><polygon points="548,861 550.89,872.9943731661259 562.7224318643355,869.5 553.78,878 562.7224318643355,886.5 550.89,883.0056268338741 548,895 545.11,883.0056268338741 533.2775681356645,886.5 542.22,878 533.2775681356645,869.5 545.11,872.9943731661259" fill="none" stroke="#c6a15b" stroke-width="3"/>
  <polygon points="320,344 416.16652224137044,383.83347775862956 456,480 416.16652224137044,576.1665222413704 320,616 223.83347775862956,576.1665222413704 184,480 223.8334777586295,383.83347775862956" fill="none" stroke="#765023" stroke-width="3"/><line x1="412" y1="480" x2="456" y2="480" stroke="#c6a15b" stroke-width="3"/><line x1="397.3953250204687" y1="529.738955205915" x2="434.4104804650407" y2="553.5271511739613" stroke="#c6a15b" stroke-width="3"/><line x1="358.21818119617353" y1="563.6861435726157" x2="376.49644176825655" y2="603.7099513682144" stroke="#c6a15b" stroke-width="3"/><line x1="306.90703487885776" y1="571.0635726530459" x2="300.64518199483325" y2="614.6157160958069" stroke="#c6a15b" stroke-width="3"/><line x1="259.7528124770338" y1="549.5289608405917" x2="230.93894018344125" y2="582.7819421121792" stroke="#c6a15b" stroke-width="3"/><line x1="231.72664642746622" y1="505.9193952294115" x2="189.50895558842836" y2="518.3156277304345" stroke="#c6a15b" stroke-width="3"/><line x1="231.72664642746622" y1="454.0806047705885" x2="189.50895558842834" y2="441.6843722695656" stroke="#c6a15b" stroke-width="3"/><line x1="259.7528124770338" y1="410.47103915940824" x2="230.93894018344122" y2="377.2180578878209" stroke="#c6a15b" stroke-width="3"/><line x1="306.90703487885776" y1="388.9364273469542" x2="300.6451819948332" y2="345.3842839041931" stroke="#c6a15b" stroke-width="3"/><line x1="358.21818119617353" y1="396.3138564273843" x2="376.4964417682565" y2="356.29004863178545" stroke="#c6a15b" stroke-width="3"/><line x1="397.3953250204687" y1="430.261044794085" x2="434.4104804650407" y2="406.4728488260387" stroke="#c6a15b" stroke-width="3"/><path d="M230 620V390H410V620M270 390V330H370V390M270 470H370" fill="none" stroke="#c6a15b" stroke-width="7"/>
</svg>