<svg xmlns="http://www.w3.org/2000/svg" viewBox="0 0 640 960" role="img">
  <defs>
    <radialGradient id="bg"><stop offset="0" stop-color="#24151a"/><stop offset="1" stop-color="#080909"/></radialGradient>
    <linearGradient id="glow" x1="0" y1="0" x2="1" y2="1"><stop stop-color="#efe4c8"/><stop offset="0.5" stop-color="#c6a15b"/><stop offset="1" stop-color="#765023"/></linearGradient>
  </defs>
  <rect width="640" height="960" rx="20" fill="url(#bg)"/>
  <rect x="28" y="28" width="584" height="904" rx="14" fill="none" stroke="#c6a15b" stroke-width="3"/>
  <rect x="48" y="48" width="544" height="864" rx="10" fill="none" stroke="#765023"/>
  <path d="M68 118H572M68 842H572" stroke="#c6a15b" opacity=".58"/>
  <circle cx="320" cy="480" r="238" fill="none" stroke="#765023" stroke-width="2" stroke-dasharray="3 13" transform="rotate(50 320 480)"/>
  <polygon points="92,65 94.89,76.99437316612594 106.72243186433546,73.5 97.78,82 106.72243186433546,90.5 94.89,87.00562683387406 92,99 89.11,87.00562683387406 77.27756813566455,90.5 86.22,82 77.27756813566454,73.5 89.11,76.99437316612594" fill="none" stroke="#c6a15b" stroke-width="3"/><polygon points="548,861 550.89,872.9943731661259 562.7224318643355,869.5 553.78,878 562.7224318643355,886.5 550.89,883.0056268338741 548,895 545.11,883.0056268338741 533.2775681356645,886.5 542.22,878 533.2775681356645,869.5 545.11,872.9943731661259" fill="none" stroke="#c6a15b" stroke-width="3"/>
  <polygon points="320,326 453.36791218280354,403 453.3679121828036,557 320,634 186.63208781719646,557 186.63208781719646,403" fill="none" stroke="#765023" stroke-width="3"/><line x1="412" y1="480" x2="474" y2="480" stroke="#c6a15b" stroke-width="3"/><line x1="390.47608876694596" y1="539.1364600911616" x2="437.9708442403226" y2="578.989291891727" stroke="#c6a15b" stroke-width="3"/><line x1="335.9756323453576" y1="570.6023132771231" x2="346.74181936070727" y2="631.6603939638801" stroke="#c6a15b" stroke-width="3"/><line x1="274" y1="559.6743371481683" x2="243.00000000000003" y2="613.3679121828036" stroke="#c6a15b" stroke-width="3"/><line x1="233.54827888769643" y1="511.4658531859615" x2="175.28733639897013" y2="532.671102072153" stroke="#c6a15b" stroke-width="3"/><line x1="233.54827888769643" y1="448.5341468140385" x2="175.2873363989701" y2="427.32889792784704" stroke="#c6a15b" stroke-width="3"/><line x1="273.99999999999994" y1="400.3256628518317" x2="242.99999999999994" y2="346.63208781719646" stroke="#c6a15b" stroke-width="3"/><line x1="335.97563234535755" y1="389.39768672287687" x2="346.7418193607072" y2="328.33960603611996" stroke="#c6a15b" stroke-width="3"/><line x1="390.47608876694596" y1="420.86353990883833" x2="437.97084424032255" y2="381.0107081082729" stroke="#c6a15b" stroke-width="3"/><circle cx="320" cy="480" r="128" fill="none" stroke="#c6a15b" stroke-width="8"/><path d="M320 335V625M175 480H465" stroke="#efe4c8" stroke-width="5"/>
</svg>