<svg xmlns="http://www.w3.org/2000/svg" viewBox="0 0 640 960" role="img">
  <defs>
    <radialGradient id="bg"><stop offset="0" stop-color="#24151a"/><stop offset="1" stop-color="#080909"/></radialGradient>
    <linearGradient id="glow" x1="0" y1="0" x2="1" y2="1"><stop stop-color="#efe4c8"/><stop offset="0.5" stop-color="#c6a15b"/><stop offset="1" stop-color="#765023"/></linearGradient>
  </defs>
  <rect width="640" height="960" rx="20" fill="url(#bg)"/>
  <rect x="28" y="28" width="584" height="904" rx="14" fill="none" stroke="#c6a15b" stroke-width="3"/>
  <rect x="48" y="48" width="544" height="864" rx="10" fill="none" stroke="#765023"/>
  <path d="M68 118H572M68 842H572" stroke="#c6a15b" opacity=".58"/>
  <circle cx="320" cy="480" r="238" fill="none" stroke="#765023" stroke-width="2" stroke-dasharray="3 13" transform="rotate(100 320 480)"/>
  <polygon points="92,65 94.89,76.99437316612594 106.72243186433546,73.5 97.78,82 106.72243186433546,90.5 94.89,87.00562683387406 92,99 89.11,87.00562683387406 77.27756813566455,90.5 86.22,82 77.27756813566454,73.5 89.11,76.99437316612594" fill="none" stroke="#c6a15b" stroke-width="3"/><polygon points="548,861 550.89,872.9943731661259 562.7224318643355,869.5 553.78,878 562.7224318643355,886.5 550.89,883.0056268338741 548,895 545.11,883.0056268338741 533.2775681356645,886.5 542.22,878 533.2775681356645,869.5 545.11,872.9943731661259" fill="none" stroke="#c6a15b" stroke-width="3"/>
  <polygon points="320,362 395.84893794301166,389.6067557119606 436.20731485544053,459.50951503530223 422.1909976465638,539 360.3583769124289,590.8837292527372 279.6416230875711,590.8837292527372 217.80900235343626,539 203.79268514455944,459.50951503530223 244.15106205698834,389.6067557119606" fill="none" stroke="#765023" stroke-width="3"/><line x1="412" y1="480" x2="438" y2="480" stroke="#c6a15b" stroke-width="3"/><line x1="399.6743371481684" y1="526" x2="422.1909976465638" y2="539" stroke="#c6a15b" stroke-width="3"/><line x1="366" y1="559.6743371481683" x2="379" y2="582.1909976465638" stroke="#c6a15b" stroke-width="3"/><line x1="320" y1="572" x2="320" y2="598" stroke="#c6a15b" stroke-width="3"/><line x1="274" y1="559.6743371481683" x2="261" y2="582.1909976465638" stroke="#c6a15b" stroke-width="3"/><line x1="240.32566285183162" y1="526" x2="217.80900235343623" y2="539" stroke="#c6a15b" stroke-width="3"/><line x1="228" y1="480" x2="202" y2="480" stroke="#c6a15b" stroke-width="3"/><line x1="240.32566285183162" y1="434" x2="217.8090023534362" y2="421.00000000000006" stroke="#c6a15b" stroke-width="3"/><line x1="273.99999999999994" y1="400.3256628518317" x2="260.99999999999994" y2="377.80900235343626" stroke="#c6a15b" stroke-width="3"/><line x1="320" y1="388" x2="320" y2="362" stroke="#c6a15b" stroke-width="3"/><line x1="366" y1="400.3256628518317" x2="379" y2="377.80900235343626" stroke="#c6a15b" stroke-width="3"/><line x1="399.6743371481683" y1="433.99999999999994" x2="422.19099764656374" y2="420.99999999999994" stroke="#c6a15b" stroke-width="3"/><path d="M225 610Q320 330 415 610M250 550H390" fill="none" stroke="#efe4c8" stroke-width="8"/><polygon points="320,351 327.48,382.0442599593848 358.1051177665153,373 334.96,395 358.1051177665153,417 327.48,407.9557400406152 320,439 312.52,407.9557400406152 281.89488223348474,417 305.04,395 281.8948822334847,373 312.52,382.0442599593848" fill="none" stroke="#c6a15b" stroke-width="3"/>
</svg>