<svg xmlns="http://www.w3.org/2000/svg" viewBox="0 0 640 960" role="img">
  <defs>
    <radialGradient id="bg"><stop offset="0" stop-color="#24151a"/><stop offset="1" stop-color="#080909"/></radialGradient>
    <linearGradient id="glow" x1="0" y1="0" x2="1" y2="1"><stop stop-color="#efe4c8"/><stop offset="0.5" stop-color="#c6a15b"/><stop offset="1" stop-color="#765023"/></linearGradient>
  </defs>
  <rect width="640" height="960" rx="20" fill="url(#bg)"/>
  <rect x="28" y="28" width="584" height="904" rx="14" fill="none" stroke="#c6a15b" stroke-width="3"/>
  <rect x="48" y="48" width="544" height="864" rx="10" fill="none" stroke="#765023"/>
  <path d="M68 118H572M68 842H572" stroke="#c6a15b" opacity=".58"/>
  <circle cx="320" cy="480" r="238" fill="none" stroke="#765023" stroke-width="2" stroke-dasharray="3 13" transform="rotate(173 320 480)"/>
  <polygon points="92,65 94.89,76.99437316612594 106.72243186433546,73.5 97.78,82 106.72243186433546,90.5 94.89,87.00562683387406 92,99 89.11,87.00562683387406 77.27756813566455,90.5 86.22,82 77.27756813566454,73.5 89.11,76.99437316612594" fill="none" stroke="#c6a15b" stroke-width="3"/><polygon points="548,861 550.89,872.9943731661259 562.7224318643355,869.5 553.78,878 562.7224318643355,886.5 550.89,883.0056268338741 548,895 545.11,883.0056268338741 533.2775681356645,886.5 542.22,878 533.2775681356645,869.5 545.11,872.9943731661259" fill="none" stroke="#c6a15b" stroke-width="3"/>
  <path d="M152 279.84Q154.16 312.96 170 315.84Q185.84 312.96 188 279.84ZM170 315.84V334.56M155.6 334.56H184.4" fill="none" stroke="#c6a15b" stroke-width="3.5999999999999996"/><path d="M227 279.84Q229.16 312.96 245 315.84Q260.84 312.96 263 279.84ZM245 315.84V334.56M230.6 334.56H259.4" fill="none" stroke="#c6a15b" stroke-width="3.5999999999999996"/><path d="M302 279.84Q304.16 312.96 320 315.84Q335.84 312.96 338 279.84ZM320 315.84V334.56M305.6 334.56H334.4" fill="none" stroke="#c6a15b" stroke-width="3.5999999999999996"/><path d="M377 279.84Q379.16 312.96 395 315.84Q410.84 312.96 413 279.84ZM395 315.84V334.56M380.6 334.56H409.4" fill="none" stroke="#c6a15b" stroke-width="3.5999999999999996"/><path d="M452 279.84Q454.16 312.96 470 315.84Q485.84 312.96 488 279.84ZM470 315.84V334.56M455.6 334.56H484.4" fill="none" stroke="#c6a15b" stroke-width="3.5999999999999996"/><path d="M152 639.84Q154.16 672.96 170 675.84Q185.84 672.96 188 639.84ZM170 675.84V694.56M155.6 694.56H184.4" fill="none" stroke="#c6a15b" stroke-width="3.5999999999999996"/><path d="M227 639.84Q229.16 672.96 245 675.84Q260.84 672.96 263 639.84ZM245 675.84V694.56M230.6 694.56H259.4" fill="none" stroke="#c6a15b" stroke-width="3.5999999999999996"/><path d="M302 639.84Q304.16 672.96 320 675.84Q335.84 672.96 338 639.84ZM320 675.84V694.56M305.6 694.56H334.4" fill="none" stroke="#c6a15b" stroke-width="3.5999999999999996"/><path d="M377 639.84Q379.16 672.96 395 675.84Q410.84 672.96 413 639.84ZM395 675.84V694.56M380.6 694.56H409.4" fill="none" stroke="#c6a15b" stroke-width="3.5999999999999996"/><path d="M452 639.84Q454.16 672.96 470 675.84Q485.84 672.96 488 639.84ZM470 675.84V694.56M455.6 694.56H484.4" fill="none" stroke="#c6a15b" stroke-width="3.5999999999999996"/>
</svg>