<svg xmlns="http://www.w3.org/2000/svg" viewBox="0 0 640 960" role="img">
  <defs>
    <radialGradient id="bg"><stop offset="0" stop-color="#24151a"/><stop offset="1" stop-color="#080909"/></radialGradient>
    <linearGradient id="glow" x1="0" y1="0" x2="1" y2="1"><stop stop-color="#efe4c8"/><stop offset="0.5" stop-color="#c6a15b"/><stop offset="1" stop-color="#765023"/></linearGradient>
  </defs>
  <rect width="640" height="960" rx="20" fill="url(#bg)"/>
  <rect x="28" y="28" width="584" height="904" rx="14" fill="none" stroke="#c6a15b" stroke-width="3"/>
  <rect x="48" y="48" width="544" height="864" rx="10" fill="none" stroke="#765023"/>
  <path d="M68 118H572M68 842H572" stroke="#c6a15b" opacity=".58"/>
  <circle cx="320" cy="480" r="238" fill="none" stroke="#765023" stroke-width="2" stroke-dasharray="3 13" transform="rotate(147 320 480)"/>
  <polygon points="92,65 94.89,76.99437316612594 106.72243186433546,73.5 97.78,82 106.72243186433546,90.5 94.89,87.00562683387406 92,99 89.11,87.00562683387406 77.27756813566455,90.5 86.22,82 77.27756813566454,73.5 89.11,76.99437316612594" fill="none" stroke="#c6a15b" stroke-width="3"/><polygon points="548,861 550.89,872.9943731661259 562.7224318643355,869.5 553.78,878 562.7224318643355,886.5 550.89,883.0056268338741 548,895 545.11,883.0056268338741 533.2775681356645,886.5 542.22,878 533.2775681356645,869.5 545.11,872.9943731661259" fill="none" stroke="#c6a15b" stroke-width="3"/>
  <circle cx="170" cy="300" r="32.68" fill="none" stroke="#c6a15b" stroke-width="4.3"/><polygon points="170,273.34 175.32792064087988,292.66674635618773 195.35516672442878,291.7616069299639 178.62075668630578,302.8010536438123 185.67035482611735,321.5683930700361 170,309.0644 154.32964517388268,321.5683930700361 161.37924331369422,302.8010536438123 144.64483327557122,291.76160692996393 164.67207935912012,292.66674635618773" fill="none" stroke="#c6a15b" stroke-width="3"/><circle cx="320" cy="300" r="32.68" fill="none" stroke="#c6a15b" stroke-width="4.3"/><polygon points="320,273.34 325.3279206408799,292.66674635618773 345.3551667244288,291.7616069299639 328.6207566863058,302.8010536438123 335.6703548261173,321.5683930700361 320,309.0644 304.3296451738827,321.5683930700361 311.3792433136942,302.8010536438123 294.6448332755712,291.76160692996393 314.6720793591201,292.66674635618773" fill="none" stroke="#c6a15b" stroke-width="3"/><circle cx="470" cy="300" r="32.68" fill="none" stroke="#c6a15b" stroke-width="4.3"/><polygon points="470,273.34 475.3279206408799,292.66674635618773 495.3551667244288,291.7616069299639 478.6207566863058,302.8010536438123 485.6703548261173,321.5683930700361 470,309.0644 454.3296451738827,321.5683930700361 461.3792433136942,302.8010536438123 444.6448332755712,291.76160692996393 464.6720793591201,292.66674635618773" fill="none" stroke="#c6a15b" stroke-width="3"/><circle cx="170" cy="660" r="32.68" fill="none" stroke="#c6a15b" stroke-width="4.3"/><polygon points="170,633.34 175.32792064087988,652.6667463561877 195.35516672442878,651.7616069299639 178.62075668630578,662.8010536438122 185.67035482611735,681.5683930700361 170,669.0644 154.32964517388268,681.5683930700361 161.37924331369422,662.8010536438122 144.64483327557122,651.7616069299639 164.67207935912012,652.6667463561877" fill="none" stroke="#c6a15b" stroke-width="3"/><circle cx="320" cy="660" r="32.68" fill="none" stroke="#c6a15b" stroke-width="4.3"/><polygon points="320,633.34 325.3279206408799,652.6667463561877 345.3551667244288,651.7616069299639 328.6207566863058,662.8010536438122 335.6703548261173,681.5683930700361 320,669.0644 304.3296451738827,681.5683930700361 311.3792433136942,662.8010536438122 294.6448332755712,651.7616069299639 314.6720793591201,652.6667463561877" fill="none" stroke="#c6a15b" stroke-width="3"/><circle cx="470" cy="660" r="32.68" fill="none" stroke="#c6a15b" stroke-width="4.3"/><polygon points="470,633.34 475.3279206408799,652.6667463561877 495.3551667244288,651.7616069299639 478.6207566863058,662.8010536438122 485.6703548261173,681.5683930700361 470,669.0644 454.3296451738827,681.5683930700361 461.3792433136942,662.8010536438122 444.6448332755712,651.7616069299639 464.6720793591201,652.6667463561877" fill="none" stroke="#c6a15b" stroke-width="3"/>
</svg>