<svg xmlns="http://www.w3.org/2000/svg" viewBox="0 0 640 960" role="img">
  <defs>
    <radialGradient id="bg"><stop offset="0" stop-color="#24151a"/><stop offset="1" stop-color="#080909"/></radialGradient>
    <linearGradient id="glow" x1="0" y1="0" x2="1" y2="1"><stop stop-color="#efe4c8"/><stop offset="0.5" stop-color="#c6a15b"/><stop offset="1" stop-color="#765023"/></linearGradient>
  </defs>
  <rect width="640" height="960" rx="20" fill="url(#bg)"/>
  <rect x="28" y="28" width="584" height="904" rx="14" fill="none" stroke="#c6a15b" stroke-width="3"/>
  <rect x="48" y="48" width="544" height="864" rx="10" fill="none" stroke="#765023"/>
  <path d="M68 118H572M68 842H572" stroke="#c6a15b" opacity=".58"/>
  <circle cx="320" cy="480" r="238" fill="none" stroke="#765023" stroke-width="2" stroke-dasharray="3 13" transform="rotate(59 320 480)"/>
  <polygon points="92,65 94.89,76.99437316612594 106.72243186433546,73.5 97.78,82 106.72243186433546,90.5 94.89,87.00562683387406 92,99 89.11,87.00562683387406 77.27756813566455,90.5 86.22,82 77.27756813566454,73.5 89.11,76.99437316612594" fill="none" stroke="#c6a15b" stroke-width="3"/><polygon points="548,861 550.89,872.9943731661259 562.7224318643355,869.5 553.78,878 562.7224318643355,886.5 550.89,883.0056268338741 548,895 545.11,883.0056268338741 533.2775681356645,886.5 542.22,878 533.2775681356645,869.5 545.11,872.9943731661259" fill="none" stroke="#c6a15b" stroke-width="3"/>
  <circle cx="170" cy="300" r="27.36" fill="none" stroke="#c6a15b" stroke-width="3.5999999999999996"/><polygon points="170,277.68 174.46058472259713,293.8605318330874 191.22758144370783,293.10274068555117 177.21737769086067,302.3450681669126 183.119366831168,318.05725931444886 170,307.5888 156.880633168832,318.05725931444886 162.78262230913933,302.3450681669126 148.77241855629217,293.10274068555117 165.53941527740287,293.8605318330874" fill="none" stroke="#c6a15b" stroke-width="3"/><circle cx="245" cy="300" r="27.36" fill="none" stroke="#c6a15b" stroke-width="3.5999999999999996"/><polygon points="245,277.68 249.46058472259713,293.8605318330874 266.22758144370783,293.10274068555117 252.21737769086067,302.3450681669126 258.119366831168,318.05725931444886 245,307.5888 231.880633168832,318.05725931444886 237.78262230913933,302.3450681669126 223.77241855629217,293.10274068555117 240.53941527740287,293.8605318330874" fill="none" stroke="#c6a15b" stroke-width="3"/><circle cx="320" cy="300" r="27.36" fill="none" stroke="#c6a15b" stroke-width="3.5999999999999996"/><polygon points="320,277.68 324.4605847225971,293.8605318330874 341.22758144370783,293.10274068555117 327.21737769086064,302.3450681669126 333.119366831168,318.05725931444886 320,307.5888 306.880633168832,318.05725931444886 312.78262230913936,302.3450681669126 298.77241855629217,293.10274068555117 315.5394152774029,293.8605318330874" fill="none" stroke="#c6a15b" stroke-width="3"/><circle cx="395" cy="300" r="27.36" fill="none" stroke="#c6a15b" stroke-width="3.5999999999999996"/><polygon points="395,277.68 399.4605847225971,293.8605318330874 416.22758144370783,293.10274068555117 402.21737769086064,302.3450681669126 408.119366831168,318.05725931444886 395,307.5888 381.880633168832,318.05725931444886 387.78262230913936,302.3450681669126 373.77241855629217,293.10274068555117 390.5394152774029,293.8605318330874" fill="none" stroke="#c6a15b" stroke-width="3"/><circle cx="470" cy="300" r="27.36" fill="none" stroke="#c6a15b" stroke-width="3.5999999999999996"/><polygon points="470,277.68 474.4605847225971,293.8605318330874 491.22758144370783,293.10274068555117 477.21737769086064,302.3450681669126 483.119366831168,318.05725931444886 470,307.5888 456.880633168832,318.05725931444886 462.78262230913936,302.3450681669126 448.77241855629217,293.10274068555117 465.5394152774029,293.8605318330874" fill="none" stroke="#c6a15b" stroke-width="3"/><circle cx="170" cy="660" r="27.36" fill="none" stroke="#c6a15b" stroke-width="3.5999999999999996"/><polygon points="170,637.68 174.46058472259713,653.8605318330874 191.22758144370783,653.1027406855512 177.21737769086067,662.3450681669126 183.119366831168,678.0572593144489 170,667.5888 156.880633168832,678.0572593144489 162.78262230913933,662.3450681669126 148.77241855629217,653.1027406855512 165.53941527740287,653.8605318330874" fill="none" stroke="#c6a15b" stroke-width="3"/><circle cx="245" cy="660" r="27.36" fill="none" stroke="#c6a15b" stroke-width="3.5999999999999996"/><polygon points="245,637.68 249.46058472259713,653.8605318330874 266.22758144370783,653.1027406855512 252.21737769086067,662.3450681669126 258.119366831168,678.0572593144489 245,667.5888 231.880633168832,678.0572593144489 237.78262230913933,662.3450681669126 223.77241855629217,653.1027406855512 240.53941527740287,653.8605318330874" fill="none" stroke="#c6a15b" stroke-width="3"/><circle cx="320" cy="660" r="27.36" fill="none" stroke="#c6a15b" stroke-width="3.5999999999999996"/><polygon points="320,637.68 324.4605847225971,653.8605318330874 341.22758144370783,653.1027406855512 327.21737769086064,662.3450681669126 333.119366831168,678.0572593144489 320,667.5888 306.880633168832,678.0572593144489 312.78262230913936,662.3450681669126 298.77241855629217,653.1027406855512 315.5394152774029,653.8605318330874" fill="none" stroke="#c6a15b" stroke-width="3"/><circle cx="395" cy="660" r="27.36" fill="none" stroke="#c6a15b" stroke-width="3.5999999999999996"/><polygon points="395,637.68 399.4605847225971,653.8605318330874 416.22758144370783,653.1027406855512 402.21737769086064,662.3450681669126 408.119366831168,678.0572593144489 395,667.5888 381.880633168832,678.0572593144489 387.78262230913936,662.3450681669126 373.77241855629217,653.1027406855512 390.5394152774029,653.8605318330874" fill="none" stroke="#c6a15b" stroke-width="3"/><circle cx="470" cy="660" r="27.36" fill="none" stroke="#c6a15b" stroke-width="3.5999999999999996"/><polygon points="470,637.68 474.4605847225971,653.8605318330874 491.22758144370783,653.1027406855512 477.21737769086064,662.3450681669126 483.119366831168,678.0572593144489 470,667.5888 456.880633168832,678.0572593144489 462.78262230913936,662.3450681669126 448.77241855629217,653.1027406855512 465.5394152774029,653.8605318330874" fill="none" stroke="#c6a15b" stroke-width="3"/>
</svg>