<svg xmlns="http://www.w3.org/2000/svg" viewBox="0 0 640 960" role="img">
  <defs>
    <radialGradient id="bg"><stop offset="0" stop-color="#24151a"/><stop offset="1" stop-color="#080909"/></radialGradient>
    <linearGradient id="glow" x1="0" y1="0" x2="1" y2="1"><stop stop-color="#efe4c8"/><stop offset="0.5" stop-color="#c6a15b"/><stop offset="1" stop-color="#765023"/></linearGradient>
  </defs>
  <rect width="640" height="960" rx="20" fill="url(#bg)"/>
  <rect x="28" y="28" width="584" height="904" rx="14" fill="none" stroke="#c6a15b" stroke-width="3"/>
  <rect x="48" y="48" width="544" height="864" rx="10" fill="none" stroke="#765023"/>
  <path d="M68 118H572M68 842H572" stroke="#c6a15b" opacity=".58"/>
  <circle cx="320" cy="480" r="238" fill="none" stroke="#765023" stroke-width="2" stroke-dasharray="3 13" transform="rotate(135 320 480)"/>
  <polygon points="92,65 94.89,76.99437316612594 106.72243186433546,73.5 97.78,82 106.72243186433546,90.5 94.89,87.00562683387406 92,99 89.11,87.00562683387406 77.27756813566455,90.5 86.22,82 77.27756813566454,73.5 89.11,76.99437316612594" fill="none" stroke="#c6a15b" stroke-width="3"/><polygon points="548,861 550.89,872.9943731661259 562.7224318643355,869.5 553.78,878 562.7224318643355,886.5 550.89,883.0056268338741 548,895 545.11,883.0056268338741 533.2775681356645,886.5 542.22,878 533.2775681356645,869.5 545.11,872.9943731661259" fill="none" stroke="#c6a15b" stroke-width="3"/>
  <path d="M170 267.6V325.2M154.16 308.64H185.84M162.8 325.2L170 334.56L177.2 325.2" fill="none" stroke="#c6a15b" stroke-width="3.5999999999999996"/><path d="M245 267.6V325.2M229.16 308.64H260.84M237.8 325.2L245 334.56L252.2 325.2" fill="none" stroke="#c6a15b" stroke-width="3.5999999999999996"/><path d="M320 267.6V325.2M304.16 308.64H335.84M312.8 325.2L320 334.56L327.2 325.2" fill="none" stroke="#c6a15b" stroke-width="3.5999999999999996"/><path d="M395 267.6V325.2M379.16 308.64H410.84M387.8 325.2L395 334.56L402.2 325.2" fill="none" stroke="#c6a15b" stroke-width="3.5999999999999996"/><path d="M470 267.6V325.2M454.16 308.64H485.84M462.8 325.2L470 334.56L477.2 325.2" fill="none" stroke="#c6a15b" stroke-width="3.5999999999999996"/><path d="M170 627.6V685.2M154.16 668.64H185.84M162.8 685.2L170 694.56L177.2 685.2" fill="none" stroke="#c6a15b" stroke-width="3.5999999999999996"/><path d="M245 627.6V685.2M229.16 668.64H260.84M237.8 685.2L245 694.56L252.2 685.2" fill="none" stroke="#c6a15b" stroke-width="3.5999999999999996"/><path d="M320 627.6V685.2M304.16 668.64H335.84M312.8 685.2L320 694.56L327.2 685.2" fill="none" stroke="#c6a15b" stroke-width="3.5999999999999996"/><path d="M395 627.6V685.2M379.16 668.64H410.84M387.8 685.2L395 694.56L402.2 685.2" fill="none" stroke="#c6a15b" stroke-width="3.5999999999999996"/><path d="M470 627.6V685.2M454.16 668.64H485.84M462.8 685.2L470 694.56L477.2 685.2" fill="none" stroke="#c6a15b" stroke-width="3.5999999999999996"/>
</svg>