<svg xmlns="http://www.w3.org/2000/svg" viewBox="0 0 640 960" role="img">
  <defs>
    <radialGradient id="bg"><stop offset="0" stop-color="#24151a"/><stop offset="1" stop-color="#080909"/></radialGradient>
    <linearGradient id="glow" x1="0" y1="0" x2="1" y2="1"><stop stop-color="#efe4c8"/><stop offset="0.5" stop-color="#c6a15b"/><stop offset="1" stop-color="#765023"/></linearGradient>
  </defs>
  <rect width="640" height="960" rx="20" fill="url(#bg)"/>
  <rect x="28" y="28" width="584" height="904" rx="14" fill="none" stroke="#c6a15b" stroke-width="3"/>
  <rect x="48" y="48" width="544" height="864" rx="10" fill="none" stroke="#765023"/>
  <path d="M68 118H572M68 842H572" stroke="#c6a15b" opacity=".58"/>
  <circle cx="320" cy="480" r="238" fill="none" stroke="#765023" stroke-width="2" stroke-dasharray="3 13" transform="rotate(74 320 480)"/>
  <polygon points="92,65 94.89,76.99437316612594 106.72243186433546,73.5 97.78,82 106.72243186433546,90.5 94.89,87.00562683387406 92,99 89.11,87.00562683387406 77.27756813566455,90.5 86.22,82 77.27756813566454,73.5 89.11,76.99437316612594" fill="none" stroke="#c6a15b" stroke-width="3"/><polygon points="548,861 550.89,872.9943731661259 562.7224318643355,869.5 553.78,878 562.7224318643355,886.5 550.89,883.0056268338741 548,895 545.11,883.0056268338741 533.2775681356645,886.5 542.22,878 533.2775681356645,869.5 545.11,872.9943731661259" fill="none" stroke="#c6a15b" stroke-width="3"/>
  <path d="M159.92 332.4L180.08 267.6M173.6 288.48L189.44 278.4M167.12 310.08L151.28 300.72" fill="none" stroke="#c6a15b" stroke-width="4.32" stroke-linecap="round"/><path d="M234.92 332.4L255.08 267.6M248.6 288.48L264.44 278.4M242.12 310.08L226.28 300.72" fill="none" stroke="#c6a15b" stroke-width="4.32" stroke-linecap="round"/><path d="M309.92 332.4L330.08 267.6M323.6 288.48L339.44 278.4M317.12 310.08L301.28 300.72" fill="none" stroke="#c6a15b" stroke-width="4.32" stroke-linecap="round"/><path d="M384.92 332.4L405.08 267.6M398.6 288.48L414.44 278.4M392.12 310.08L376.28 300.72" fill="none" stroke="#c6a15b" stroke-width="4.32" stroke-linecap="round"/><path d="M459.92 332.4L480.08 267.6M473.6 288.48L489.44 278.4M467.12 310.08L451.28 300.72" fill="none" stroke="#c6a15b" stroke-width="4.32" stroke-linecap="round"/><path d="M197.42 692.4L217.58 627.6M211.1 648.48L226.94 638.4M204.62 670.08L188.78 660.72" fill="none" stroke="#c6a15b" stroke-width="4.32" stroke-linecap="round"/><path d="M272.42 692.4L292.58 627.6M286.1 648.48L301.94 638.4M279.62 670.08L263.78 660.72" fill="none" stroke="#c6a15b" stroke-width="4.32" stroke-linecap="round"/><path d="M347.42 692.4L367.58 627.6M361.1 648.48L376.94 638.4M354.62 670.08L338.78 660.72" fill="none" stroke="#c6a15b" stroke-width="4.32" stroke-linecap="round"/><path d="M422.42 692.4L442.58 627.6M436.1 648.48L451.94 638.4M429.62 670.08L413.78 660.72" fill="none" stroke="#c6a15b" stroke-width="4.32" stroke-linecap="round"/>
</svg>