<svg xmlns="http://www.w3.org/2000/svg" viewBox="0 0 640 960" role="img">
  <defs>
    <radialGradient id="bg"><stop offset="0" stop-color="#24151a"/><stop offset="1" stop-color="#080909"/></radialGradient>
    <linearGradient id="glow" x1="0" y1="0" x2="1" y2="1"><stop stop-color="#efe4c8"/><stop offset="0.5" stop-color="#c6a15b"/><stop offset="1" stop-color="#765023"/></linearGradient>
  </defs>
  <rect width="640" height="960" rx="20" fill="url(#bg)"/>
  <rect x="28" y="28" width="584" height="904" rx="14" fill="none" stroke="#c6a15b" stroke-width="3"/>
  <rect x="48" y="48" width="544" height="864" rx="10" fill="none" stroke="#765023"/>
  <path d="M68 118H572M68 842H572" stroke="#c6a15b" opacity=".58"/>
  <circle cx="320" cy="480" r="238" fill="none" stroke="#765023" stroke-width="2" stroke-dasharray="3 13" transform="rotate(139 320 480)"/>
  <polygon points="92,65 94.89,76.99437316612594 106.72243186433546,73.5 97.78,82 106.72243186433546,90.5 94.89,87.00562683387406 92,99 89.11,87.00562683387406 77.27756813566455,90.5 86.22,82 77.27756813566454,73.5 89.11,76.99437316612594" fill="none" stroke="#c6a15b" stroke-width="3"/><polygon points="548,861 550.89,872.9943731661259 562.7224318643355,869.5 553.78,878 562.7224318643355,886.5 550.89,883.0056268338741 548,895 545.11,883.0056268338741 533.2775681356645,886.5 542.22,878 533.2775681356645,869.5 545.11,872.9943731661259" fill="none" stroke="#c6a15b" stroke-width="3"/>
  <path d="M157.96 338.7L182.04 261.3M174.3 286.24L193.22 274.2M166.56 312.04L147.64 300.86" fill="none" stroke="#c6a15b" stroke-width="5.16" stroke-linecap="round"/><path d="M307.96 338.7L332.04 261.3M324.3 286.24L343.22 274.2M316.56 312.04L297.64 300.86" fill="none" stroke="#c6a15b" stroke-width="5.16" stroke-linecap="round"/><path d="M457.96 338.7L482.04 261.3M474.3 286.24L493.22 274.2M466.56 312.04L447.64 300.86" fill="none" stroke="#c6a15b" stroke-width="5.16" stroke-linecap="round"/><path d="M307.96 698.7L332.04 621.3M324.3 646.24L343.22 634.2M316.56 672.04L297.64 660.86" fill="none" stroke="#c6a15b" stroke-width="5.16" stroke-linecap="round"/>
</svg>